<svg width="85" height="77" viewBox="0 0 85 77" fill="none" xmlns="http://www.w3.org/2000/svg">
<g clip-path="url(#clip0_103_1240)">
<path d="M81.7792 20.5549V74.4677H12.0741V20.5549H81.7792Z" fill="#F6FAFD"/>
<path d="M81.7799 76.9372H12.0748C11.3999 76.9372 10.7526 76.6772 10.2754 76.2143C9.79819 75.7514 9.53009 75.1236 9.53009 74.469V20.5558C9.53009 19.9012 9.79819 19.2734 10.2754 18.8106C10.7526 18.3477 11.3999 18.0876 12.0748 18.0876H81.7799C82.4548 18.0876 83.1021 18.3477 83.5793 18.8106C84.0565 19.2734 84.3246 19.9012 84.3246 20.5558V74.4685C84.3246 75.1232 84.0565 75.751 83.5793 76.214C83.1021 76.6769 82.4549 76.9371 81.7799 76.9372ZM14.6194 72.0004H79.2347V23.0239H14.6194V72.0004Z" fill="#56A9DD"/>
<path d="M81.7792 6.85962V20.5554H12.0741V6.85962H81.7792Z" fill="#CB3631"/>
<path d="M81.7799 23.0234H12.0748C11.3999 23.0234 10.7526 22.7634 10.2754 22.3005C9.79819 21.8376 9.53009 21.2098 9.53009 20.5552V6.8595C9.53009 6.20491 9.79819 5.57713 10.2754 5.11426C10.7526 4.65139 11.3999 4.39136 12.0748 4.39136H81.7799C82.4548 4.39136 83.1021 4.65139 83.5793 5.11426C84.0565 5.57713 84.3246 6.20491 84.3246 6.8595V20.5558C84.3244 21.2103 84.0563 21.8379 83.5791 22.3007C83.1019 22.7634 82.4547 23.0234 81.7799 23.0234ZM14.6194 18.0871H79.2347V9.32765H14.6194V18.0871Z" fill="#56A9DD"/>
<path d="M26.7924 11.7955C26.1175 11.7955 25.4702 11.5355 24.993 11.0726C24.5158 10.6097 24.2477 9.98196 24.2477 9.32737V3.43885C24.2477 2.78426 24.5158 2.15647 24.993 1.69361C25.4702 1.23074 26.1175 0.970703 26.7924 0.970703C27.4673 0.970703 28.1145 1.23074 28.5917 1.69361C29.069 2.15647 29.3371 2.78426 29.3371 3.43885V9.32686C29.3371 9.9815 29.069 10.6093 28.5918 11.0723C28.1146 11.5352 27.4673 11.7954 26.7924 11.7955Z" fill="#56A9DD"/>
<path d="M46.9271 11.7955C46.2522 11.7955 45.6049 11.5355 45.1277 11.0726C44.6505 10.6097 44.3824 9.98196 44.3824 9.32737V3.43885C44.3824 2.78426 44.6505 2.15647 45.1277 1.69361C45.6049 1.23074 46.2522 0.970703 46.9271 0.970703C47.6019 0.970703 48.2492 1.23074 48.7264 1.69361C49.2036 2.15647 49.4717 2.78426 49.4717 3.43885V9.32686C49.4717 9.9815 49.2036 10.6093 48.7264 11.0723C48.2492 11.5352 47.602 11.7954 46.9271 11.7955Z" fill="#56A9DD"/>
<path d="M67.0617 11.7955C66.3868 11.7955 65.7396 11.5355 65.2624 11.0726C64.7851 10.6097 64.517 9.98196 64.517 9.32737V3.43885C64.517 3.11473 64.5828 2.79378 64.7107 2.49433C64.8386 2.19488 65.0261 1.9228 65.2624 1.69361C65.4986 1.46442 65.7792 1.28262 66.0879 1.15858C66.3966 1.03454 66.7275 0.970703 67.0617 0.970703C67.3959 0.970703 67.7268 1.03454 68.0355 1.15858C68.3442 1.28262 68.6248 1.46442 68.8611 1.69361C69.0974 1.9228 69.2848 2.19488 69.4127 2.49433C69.5405 2.79378 69.6064 3.11473 69.6064 3.43885V9.32686C69.6064 9.9815 69.3383 10.6093 68.8611 11.0723C68.3839 11.5352 67.7366 11.7954 67.0617 11.7955Z" fill="#56A9DD"/>
<path d="M67.0609 35.0843H64.5992C64.4321 35.0843 64.2666 35.0524 64.1122 34.9904C63.9578 34.9283 63.8175 34.8374 63.6993 34.7228C63.5812 34.6082 63.4874 34.4721 63.4235 34.3224C63.3595 34.1726 63.3266 34.0121 63.3266 33.85V31.4633C63.3266 31.3012 63.3595 31.1407 63.4235 30.991C63.4874 30.8412 63.5812 30.7051 63.6993 30.5905C63.8175 30.4759 63.9578 30.385 64.1122 30.323C64.2666 30.2609 64.4321 30.229 64.5992 30.229H67.0609C67.3984 30.229 67.7221 30.3591 67.9608 30.5905C68.1994 30.822 68.3335 31.136 68.3335 31.4633V33.8505C68.3332 34.1777 68.1991 34.4915 67.9604 34.7228C67.7218 34.9542 67.3983 35.0842 67.0609 35.0843Z" fill="#56A9DD"/>
<path d="M48.1577 35.0843H45.696C45.5289 35.0843 45.3634 35.0524 45.209 34.9904C45.0546 34.9283 44.9143 34.8374 44.7961 34.7228C44.678 34.6082 44.5842 34.4721 44.5203 34.3224C44.4563 34.1726 44.4234 34.0121 44.4234 33.85V31.4633C44.4234 31.136 44.5575 30.822 44.7961 30.5905C45.0348 30.3591 45.3585 30.229 45.696 30.229H48.1577C48.4952 30.229 48.8189 30.3591 49.0576 30.5905C49.2962 30.822 49.4303 31.136 49.4303 31.4633V33.8505C49.4303 34.0126 49.3974 34.1731 49.3334 34.3228C49.2695 34.4725 49.1757 34.6086 49.0575 34.7231C48.9394 34.8377 48.7991 34.9286 48.6447 34.9906C48.4903 35.0525 48.3248 35.0844 48.1577 35.0843Z" fill="#56A9DD"/>
<path d="M29.2535 35.0843H26.7918C26.6247 35.0843 26.4592 35.0524 26.3048 34.9904C26.1504 34.9283 26.0101 34.8374 25.8919 34.7228C25.7738 34.6082 25.68 34.4721 25.6161 34.3224C25.5521 34.1726 25.5192 34.0121 25.5192 33.85V31.4633C25.5192 31.136 25.6533 30.822 25.8919 30.5905C26.1306 30.3591 26.4543 30.229 26.7918 30.229H29.2535C29.4206 30.229 29.5861 30.2609 29.7405 30.323C29.8949 30.385 30.0352 30.4759 30.1534 30.5905C30.2715 30.7051 30.3653 30.8412 30.4292 30.991C30.4932 31.1407 30.5261 31.3012 30.5261 31.4633V33.8505C30.5261 34.0126 30.4932 34.1731 30.4292 34.3228C30.3653 34.4725 30.2715 34.6086 30.1533 34.7231C30.0352 34.8377 29.8949 34.9286 29.7405 34.9906C29.5861 35.0525 29.4206 35.0844 29.2535 35.0843Z" fill="#56A9DD"/>
<path d="M67.0609 49.9396H64.5992C64.4321 49.9396 64.2666 49.9077 64.1122 49.8456C63.9578 49.7836 63.8175 49.6927 63.6993 49.5781C63.5812 49.4635 63.4874 49.3274 63.4235 49.1776C63.3595 49.0279 63.3266 48.8674 63.3266 48.7053V46.3176C63.3266 46.1555 63.3595 45.995 63.4235 45.8452C63.4874 45.6955 63.5812 45.5594 63.6993 45.4448C63.8175 45.3302 63.9578 45.2392 64.1122 45.1772C64.2666 45.1152 64.4321 45.0833 64.5992 45.0833H67.0609C67.3984 45.0833 67.7221 45.2133 67.9608 45.4448C68.1994 45.6763 68.3335 45.9902 68.3335 46.3176V48.7053C68.3334 49.0326 68.1993 49.3465 67.9606 49.5779C67.722 49.8094 67.3984 49.9395 67.0609 49.9396Z" fill="#56A9DD"/>
<path d="M48.1577 49.9396H45.696C45.3585 49.9396 45.0348 49.8096 44.7961 49.5781C44.5575 49.3466 44.4234 49.0326 44.4234 48.7053V46.3176C44.4234 45.9902 44.5575 45.6763 44.7961 45.4448C45.0348 45.2133 45.3585 45.0833 45.696 45.0833H48.1577C48.4952 45.0833 48.8189 45.2133 49.0576 45.4448C49.2962 45.6763 49.4303 45.9902 49.4303 46.3176V48.7053C49.4303 49.0326 49.2962 49.3466 49.0576 49.5781C48.8189 49.8096 48.4952 49.9396 48.1577 49.9396Z" fill="#56A9DD"/>
<path d="M29.2535 49.9396H26.7918C26.4543 49.9396 26.1306 49.8096 25.8919 49.5781C25.6533 49.3466 25.5192 49.0326 25.5192 48.7053V46.3176C25.5192 45.9902 25.6533 45.6763 25.8919 45.4448C26.1306 45.2133 26.4543 45.0833 26.7918 45.0833H29.2535C29.4206 45.0833 29.5861 45.1152 29.7405 45.1772C29.8949 45.2392 30.0352 45.3302 30.1534 45.4448C30.2715 45.5594 30.3653 45.6955 30.4292 45.8452C30.4932 45.995 30.5261 46.1555 30.5261 46.3176V48.7053C30.5261 48.8674 30.4932 49.0279 30.4292 49.1776C30.3653 49.3274 30.2715 49.4635 30.1534 49.5781C30.0352 49.6927 29.8949 49.7836 29.7405 49.8456C29.5861 49.9077 29.4206 49.9396 29.2535 49.9396Z" fill="#56A9DD"/>
<path d="M67.0609 64.7948H64.5992C64.4321 64.7948 64.2666 64.7629 64.1122 64.7009C63.9578 64.6388 63.8175 64.5479 63.6993 64.4333C63.5812 64.3187 63.4874 64.1826 63.4235 64.0328C63.3595 63.8831 63.3266 63.7226 63.3266 63.5605V61.1728C63.3266 61.0107 63.3595 60.8502 63.4235 60.7004C63.4874 60.5507 63.5812 60.4146 63.6993 60.3C63.8175 60.1854 63.9578 60.0945 64.1122 60.0324C64.2666 59.9704 64.4321 59.9385 64.5992 59.9385H67.0609C67.3984 59.9385 67.7221 60.0685 67.9608 60.3C68.1994 60.5315 68.3335 60.8454 68.3335 61.1728V63.5605C68.3334 63.8878 68.1993 64.2017 67.9606 64.4331C67.722 64.6646 67.3984 64.7947 67.0609 64.7948Z" fill="#56A9DD"/>
<path d="M48.1577 64.7948H45.696C45.3585 64.7948 45.0348 64.6648 44.7961 64.4333C44.5575 64.2018 44.4234 63.8879 44.4234 63.5605V61.1728C44.4234 60.8454 44.5575 60.5315 44.7961 60.3C45.0348 60.0685 45.3585 59.9385 45.696 59.9385H48.1577C48.4952 59.9385 48.8189 60.0685 49.0576 60.3C49.2962 60.5315 49.4303 60.8454 49.4303 61.1728V63.5605C49.4303 63.8879 49.2962 64.2018 49.0576 64.4333C48.8189 64.6648 48.4952 64.7948 48.1577 64.7948Z" fill="#56A9DD"/>
<path d="M29.2535 64.7948H26.7918C26.4543 64.7948 26.1306 64.6648 25.8919 64.4333C25.6533 64.2018 25.5192 63.8879 25.5192 63.5605V61.1728C25.5192 60.8454 25.6533 60.5315 25.8919 60.3C26.1306 60.0685 26.4543 59.9385 26.7918 59.9385H29.2535C29.4206 59.9385 29.5861 59.9704 29.7405 60.0324C29.8949 60.0945 30.0352 60.1854 30.1534 60.3C30.2715 60.4146 30.3653 60.5507 30.4292 60.7004C30.4932 60.8502 30.5261 61.0107 30.5261 61.1728V63.5605C30.5261 63.7226 30.4932 63.8831 30.4292 64.0328C30.3653 64.1826 30.2715 64.3187 30.1534 64.4333C30.0352 64.5479 29.8949 64.6388 29.7405 64.7009C29.5861 64.7629 29.4206 64.7948 29.2535 64.7948Z" fill="#56A9DD"/>
<path d="M37.7158 47.5117C37.7158 56.8451 29.9154 64.4109 20.2927 64.4109C10.67 64.4109 2.86957 56.8451 2.86957 47.5117C2.86957 38.1784 10.67 30.6125 20.2927 30.6125C29.9154 30.6125 37.7158 38.1784 37.7158 47.5117Z" fill="#F6FAFD"/>
<path d="M20.2929 66.88C9.28212 66.88 0.324585 58.1913 0.324585 47.5121C0.324585 36.833 9.28212 28.1443 20.2929 28.1443C31.3037 28.1443 40.2613 36.8324 40.2613 47.5121C40.2613 58.1918 31.3032 66.88 20.2929 66.88ZM20.2929 33.0806C12.0888 33.0806 5.41445 39.5542 5.41445 47.5116C5.41445 55.4691 12.0888 61.9427 20.2929 61.9427C28.4971 61.9427 35.1714 55.4691 35.1714 47.5116C35.1714 39.5542 28.4971 33.0806 20.2929 33.0806Z" fill="#56A9DD"/>
<path d="M15.2863 49.2971H20.2927L21.8572 40.1924" fill="#F6FAFD"/>
<path d="M20.2934 51.7649H15.287C14.6121 51.7649 13.9648 51.5048 13.4876 51.042C13.0104 50.5791 12.7423 49.9513 12.7423 49.2967C12.7423 48.6421 13.0104 48.0144 13.4876 47.5515C13.9648 47.0886 14.6121 46.8286 15.287 46.8286H18.1377L19.3478 39.7867C19.4001 39.4647 19.5176 39.156 19.6936 38.8783C19.8695 38.6005 20.1005 38.3594 20.373 38.1687C20.6456 37.9781 20.9544 37.8416 21.2816 37.7673C21.6088 37.6931 21.948 37.6824 22.2795 37.7359C22.611 37.7894 22.9283 37.9061 23.213 38.0792C23.4978 38.2524 23.7443 38.4785 23.9385 38.7445C24.1327 39.0105 24.2706 39.3113 24.3443 39.6293C24.418 39.9473 24.426 40.2763 24.3679 40.5974L22.8034 49.7021C22.7045 50.2784 22.3979 50.8021 21.9383 51.1798C21.4787 51.5575 20.8958 51.7649 20.2934 51.7649Z" fill="#56A9DD"/>
</g>
<defs>
<clipPath id="clip0_103_1240">
<rect width="84" height="76" fill="white" transform="translate(0.324585 0.936523)"/>
</clipPath>
</defs>
</svg>
