<?xml version="1.0" encoding="UTF-8"?>
<svg id="Layer_1" xmlns="http://www.w3.org/2000/svg" xmlns:xlink="http://www.w3.org/1999/xlink" version="1.1" viewBox="0 0 85 77">
  <!-- Generator: Adobe Illustrator 29.8.2, SVG Export Plug-In . SVG Version: 2.1.1 Build 3)  -->
  <defs>
    <style>
      .st0 {
        fill: none;
      }

      .st1 {
        fill: #f6fafd;
      }

      .st2 {
        fill: #56a9dd;
      }

      .st3 {
        fill: #cb3631;
      }

      .st4 {
        clip-path: url(#clippath);
      }
    </style>
    <clipPath id="clippath">
      <rect class="st0" x="2.32" y="2.75" width="80" height="72.38"/>
    </clipPath>
  </defs>
  <g class="st4">
    <g>
      <path class="st1" d="M79.9,21.43v51.35H13.51V21.43h66.39Z"/>
      <path class="st2" d="M79.9,75.13H13.52c-.64,0-1.26-.25-1.71-.69-.45-.44-.71-1.04-.71-1.66V21.43c0-.62.26-1.22.71-1.66.45-.44,1.07-.69,1.71-.69h66.39c.64,0,1.26.25,1.71.69.45.44.71,1.04.71,1.66v51.35c0,.62-.26,1.22-.71,1.66-.45.44-1.07.69-1.71.69ZM15.94,70.43h61.54V23.78H15.94v46.64Z"/>
      <path class="st3" d="M79.9,8.39v13.04H13.51v-13.04h66.39Z"/>
      <path class="st2" d="M79.9,23.78H13.52c-.64,0-1.26-.25-1.71-.69-.45-.44-.71-1.04-.71-1.66v-13.04c0-.62.26-1.22.71-1.66.45-.44,1.07-.69,1.71-.69h66.39c.64,0,1.26.25,1.71.69.45.44.71,1.04.71,1.66v13.04c0,.62-.26,1.22-.71,1.66-.45.44-1.07.69-1.71.69ZM15.94,19.08h61.54v-8.34H15.94v8.34Z"/>
      <path class="st2" d="M27.53,13.09c-.64,0-1.26-.25-1.71-.69-.45-.44-.71-1.04-.71-1.66v-5.61c0-.62.26-1.22.71-1.66.45-.44,1.07-.69,1.71-.69s1.26.25,1.71.69c.45.44.71,1.04.71,1.66v5.61c0,.62-.26,1.22-.71,1.66-.45.44-1.07.69-1.71.69Z"/>
      <path class="st2" d="M46.71,13.09c-.64,0-1.26-.25-1.71-.69-.45-.44-.71-1.04-.71-1.66v-5.61c0-.62.26-1.22.71-1.66.45-.44,1.07-.69,1.71-.69s1.26.25,1.71.69c.45.44.71,1.04.71,1.66v5.61c0,.62-.26,1.22-.71,1.66-.45.44-1.07.69-1.71.69Z"/>
      <path class="st2" d="M65.88,13.09c-.64,0-1.26-.25-1.71-.69-.45-.44-.71-1.04-.71-1.66v-5.61c0-.31.06-.61.18-.9.12-.29.3-.54.53-.76.22-.22.49-.39.79-.51.29-.12.61-.18.93-.18s.63.06.93.18c.29.12.56.29.79.51s.4.48.53.76c.12.29.18.59.18.9v5.61c0,.62-.26,1.22-.71,1.66-.45.44-1.07.69-1.71.69Z"/>
      <path class="st2" d="M65.88,35.27h-2.34c-.16,0-.32-.03-.46-.09-.15-.06-.28-.15-.39-.25-.11-.11-.2-.24-.26-.38-.06-.14-.09-.3-.09-.45v-2.27c0-.15.03-.31.09-.45.06-.14.15-.27.26-.38.11-.11.25-.2.39-.25.15-.06.3-.09.46-.09h2.34c.32,0,.63.12.86.34.23.22.35.52.35.83v2.27c0,.31-.13.61-.36.83-.23.22-.54.34-.86.34Z"/>
      <path class="st2" d="M47.88,35.27h-2.34c-.16,0-.32-.03-.46-.09-.15-.06-.28-.15-.39-.25-.11-.11-.2-.24-.26-.38-.06-.14-.09-.3-.09-.45v-2.27c0-.31.13-.61.35-.83.23-.22.54-.34.86-.34h2.34c.32,0,.63.12.86.34.23.22.35.52.35.83v2.27c0,.15-.03.31-.09.45-.06.14-.15.27-.26.38-.11.11-.25.2-.39.25-.15.06-.3.09-.46.09Z"/>
      <path class="st2" d="M29.88,35.27h-2.34c-.16,0-.32-.03-.46-.09-.15-.06-.28-.15-.39-.25-.11-.11-.2-.24-.26-.38-.06-.14-.09-.3-.09-.45v-2.27c0-.31.13-.61.35-.83.23-.22.54-.34.86-.34h2.34c.16,0,.32.03.46.09.15.06.28.15.39.25.11.11.2.24.26.38.06.14.09.3.09.45v2.27c0,.15-.03.31-.09.45-.06.14-.15.27-.26.38-.11.11-.25.2-.39.25-.15.06-.3.09-.46.09Z"/>
      <path class="st2" d="M65.88,49.42h-2.34c-.16,0-.32-.03-.46-.09-.15-.06-.28-.15-.39-.25-.11-.11-.2-.24-.26-.38-.06-.14-.09-.3-.09-.45v-2.27c0-.15.03-.31.09-.45.06-.14.15-.27.26-.38.11-.11.25-.2.39-.25.15-.06.3-.09.46-.09h2.34c.32,0,.63.12.86.34.23.22.35.52.35.83v2.27c0,.31-.13.61-.36.83-.23.22-.54.34-.86.34Z"/>
      <path class="st2" d="M47.88,49.42h-2.34c-.32,0-.63-.12-.86-.34-.23-.22-.35-.52-.35-.83v-2.27c0-.31.13-.61.35-.83.23-.22.54-.34.86-.34h2.34c.32,0,.63.12.86.34.23.22.35.52.35.83v2.27c0,.31-.13.61-.35.83-.23.22-.54.34-.86.34Z"/>
      <path class="st2" d="M29.88,49.42h-2.34c-.32,0-.63-.12-.86-.34-.23-.22-.35-.52-.35-.83v-2.27c0-.31.13-.61.35-.83.23-.22.54-.34.86-.34h2.34c.16,0,.32.03.46.09s.28.15.39.25c.11.11.2.24.26.38.06.14.09.3.09.45v2.27c0,.15-.03.31-.09.45-.06.14-.15.27-.26.38-.11.11-.25.2-.39.25-.15.06-.3.09-.46.09Z"/>
      <path class="st2" d="M65.88,63.56h-2.34c-.16,0-.32-.03-.46-.09-.15-.06-.28-.15-.39-.25-.11-.11-.2-.24-.26-.38-.06-.14-.09-.3-.09-.45v-2.27c0-.15.03-.31.09-.45.06-.14.15-.27.26-.38.11-.11.25-.2.39-.25.15-.06.3-.09.46-.09h2.34c.32,0,.63.12.86.34.23.22.35.52.35.83v2.27c0,.31-.13.61-.36.83-.23.22-.54.34-.86.34Z"/>
      <path class="st2" d="M47.88,63.56h-2.34c-.32,0-.63-.12-.86-.34-.23-.22-.35-.52-.35-.83v-2.27c0-.31.13-.61.35-.83.23-.22.54-.34.86-.34h2.34c.32,0,.63.12.86.34.23.22.35.52.35.83v2.27c0,.31-.13.61-.35.83-.23.22-.54.34-.86.34Z"/>
      <path class="st2" d="M29.88,63.56h-2.34c-.32,0-.63-.12-.86-.34-.23-.22-.35-.52-.35-.83v-2.27c0-.31.13-.61.35-.83.23-.22.54-.34.86-.34h2.34c.16,0,.32.03.46.09.15.06.28.15.39.25.11.11.2.24.26.38.06.14.09.3.09.45v2.27c0,.15-.03.31-.09.45-.06.14-.15.27-.26.38-.11.11-.25.2-.39.25-.15.06-.3.09-.46.09Z"/>
      <path class="st1" d="M37.94,47.1c0,8.89-7.43,16.09-16.59,16.09s-16.59-7.21-16.59-16.09,7.43-16.09,16.59-16.09,16.59,7.21,16.59,16.09Z"/>
      <path class="st2" d="M21.34,65.55c-10.49,0-19.02-8.27-19.02-18.45s8.53-18.45,19.02-18.45,19.02,8.27,19.02,18.45-8.53,18.45-19.02,18.45ZM21.34,33.36c-7.81,0-14.17,6.17-14.17,13.74s6.36,13.74,14.17,13.74,14.17-6.17,14.17-13.74-6.36-13.74-14.17-13.74Z"/>
      <path class="st1" d="M16.57,48.8h4.77l1.49-8.67"/>
      <path class="st2" d="M21.34,51.15h-4.77c-.64,0-1.26-.25-1.71-.69-.45-.44-.71-1.04-.71-1.66s.26-1.22.71-1.66c.45-.44,1.07-.69,1.71-.69h2.71l1.15-6.71c.05-.31.16-.6.33-.87.17-.26.39-.49.65-.68.26-.18.55-.31.87-.38.31-.07.63-.08.95-.03.32.05.62.16.89.33.27.16.51.38.69.63.18.25.32.54.39.84s.08.62.02.92l-1.49,8.67c-.09.55-.39,1.05-.82,1.41-.44.36-.99.56-1.57.56Z"/>
    </g>
  </g>
</svg>