<svg width="50" height="28" viewBox="0 0 50 28" fill="none" xmlns="http://www.w3.org/2000/svg">
<path d="M49.8246 2.23889V15.299C49.8246 15.6453 49.6905 15.9774 49.4518 16.2223C49.2131 16.4672 48.8894 16.6048 48.5518 16.6048C48.2143 16.6048 47.8906 16.4672 47.6519 16.2223C47.4132 15.9774 47.2791 15.6453 47.2791 15.299V5.40303L29.3936 23.8377C29.2754 23.9596 29.1348 24.0563 28.98 24.1223C28.8252 24.1883 28.6592 24.2222 28.4916 24.2222C28.324 24.2222 28.158 24.1883 28.0032 24.1223C27.8484 24.0563 27.7078 23.9596 27.5895 23.8377L17.9336 13.8853L2.99898 29.279C2.88083 29.4011 2.74028 29.4979 2.58546 29.5639C2.43063 29.6299 2.26459 29.6638 2.09693 29.6636C1.84551 29.6634 1.59977 29.5869 1.39068 29.4437C1.1816 29.3004 1.01854 29.0968 0.922055 28.8586C0.825574 28.6204 0.799997 28.3582 0.84855 28.1051C0.897102 27.852 1.01761 27.6193 1.19487 27.4364L17.0315 11.113C17.1498 10.9911 17.2904 10.8944 17.4452 10.8284C17.6 10.7624 17.766 10.7285 17.9336 10.7285C18.1012 10.7285 18.2672 10.7624 18.422 10.8284C18.5768 10.8944 18.7174 10.9911 18.8357 11.113L28.4916 21.0654L45.489 3.54608H35.8821C35.5445 3.54608 35.2208 3.40849 34.9821 3.16359C34.7434 2.91869 34.6093 2.58654 34.6093 2.2402C34.6093 1.89386 34.7434 1.56171 34.9821 1.31681C35.2208 1.07191 35.5445 0.934326 35.8821 0.934326H48.5518C48.5674 0.934326 48.5821 0.93857 48.5977 0.939223C48.6651 0.941835 48.7326 0.946405 48.7991 0.960117C48.8388 0.968278 48.8761 0.98297 48.9143 0.994723C48.9553 1.00713 48.9967 1.01692 49.0364 1.03357C49.0797 1.05186 49.1189 1.07667 49.1596 1.09952C49.1917 1.11748 49.2251 1.13217 49.256 1.15306C49.312 1.19126 49.3626 1.23631 49.4116 1.28267C49.4237 1.2941 49.4377 1.30226 49.4494 1.31434L49.4507 1.31597C49.5096 1.37636 49.5624 1.44264 49.6089 1.51381C49.6311 1.54776 49.6464 1.58498 49.6652 1.62056C49.6859 1.65974 49.7094 1.69728 49.7263 1.73875C49.745 1.78478 49.7559 1.83277 49.7692 1.88043C49.7788 1.91471 49.7921 1.94736 49.7991 1.98262C49.8157 2.06717 49.8243 2.15303 49.8246 2.23889Z" fill="#56A9DD"/>
</svg>
