<svg width="78" height="98" viewBox="0 0 78 98" fill="none" xmlns="http://www.w3.org/2000/svg">
<path d="M71.861 6.50972C67.8757 2.52447 62.2324 0.546387 54.9309 0.546387H44.4005L45.3605 49.0094H51.5856C57.9853 49.0094 63.3087 47.6131 67.5266 44.7914C71.7737 41.9697 74.5372 38.6535 75.8462 34.8428C77.1552 31.0321 77.8243 27.2214 77.8243 23.4107C77.8534 16.1092 75.8462 10.4659 71.861 6.50972ZM56.6181 30.8285C54.8436 32.4284 52.4292 33.2138 49.433 33.2138H45.3896V16.022H51.0911C53.8255 16.022 55.8909 16.691 57.2581 18.0291C58.6253 19.3672 59.3234 21.4035 59.3234 24.1379C59.2943 27.0178 58.4216 29.2576 56.6181 30.8285Z" fill="#56A9DD"/>
<path d="M44.7205 0.546387H30.9321C29.6231 0.546387 28.5468 1.62269 28.5468 2.93172V33.6211H3.20992C1.90089 33.6211 0.824585 34.6974 0.824585 36.0064V47.3222C0.824585 48.6312 1.90089 49.7075 3.20992 49.7075H28.5468V78.4479C28.5468 79.7569 29.6231 80.8332 30.9321 80.8332H44.7205C46.0296 80.8332 47.1059 79.7569 47.1059 78.4479V2.93172C47.1059 1.62269 46.0296 0.546387 44.7205 0.546387Z" fill="#CB3631"/>
<path d="M3.18083 87.0583H5.50799V90.9563H7.36971V87.0583H9.72595V97.1524H7.36971V92.9344H5.50799V97.1524H3.18083V87.0583Z" fill="#CB3631"/>
<path d="M11.6749 87.0583H17.4346V89.0946H14.0312V90.9563H17.2019V92.9344H14.0312V95.1161H17.4346V97.1815H11.6749V87.0583Z" fill="#CB3631"/>
<path d="M21.0708 87.0583H23.398L26.0451 97.1524H23.4853L23.1362 95.1452H21.2163L20.8381 97.1524H18.4237L21.0708 87.0583ZM22.2053 89.8218L21.5653 93.3417H22.8453L22.2053 89.8218Z" fill="#CB3631"/>
<path d="M27.3251 87.0583H29.6813V95.087H32.9102V97.1524H27.3251V87.0583Z" fill="#CB3631"/>
<path d="M32.9975 87.0583H39.3681V89.0946H37.3318V97.1233H34.9756V89.0946H32.9975V87.0583Z" fill="#CB3631"/>
<path d="M40.9389 87.0583H43.2661V90.9563H45.1278V87.0583H47.484V97.1524H45.1278V92.9344H43.2661V97.1524H40.9389V87.0583Z" fill="#CB3631"/>
<path d="M53.6219 87.0583H57.229C58.1598 87.0583 58.8871 87.3201 59.3816 87.8147C59.9052 88.3092 60.1379 89.0073 60.1379 89.9382C60.1379 90.4036 60.0507 90.8981 59.8761 91.3636C59.7016 91.829 59.3525 92.2653 58.7998 92.6144C58.2471 92.9635 57.5781 93.138 56.7635 93.138H55.9781V97.1233H53.5928V87.0583H53.6219ZM56.0072 89.0073V91.16H56.5308C56.909 91.16 57.229 91.0727 57.4617 90.8691C57.6944 90.6654 57.8108 90.3745 57.8108 90.0255C57.8108 89.6764 57.7235 89.4146 57.549 89.2691C57.3744 89.0946 57.1126 89.0073 56.7635 89.0073H56.0072Z" fill="#56A9DD"/>
<path d="M64.7922 86.9128C66.014 86.9128 66.9739 87.3783 67.6721 88.28C68.3702 89.2109 68.7193 90.4617 68.7193 92.0617C68.7193 93.6616 68.3702 94.9415 67.643 95.9015C66.9448 96.8614 66.014 97.3269 64.8795 97.3269C63.7159 97.3269 62.8142 96.8323 62.1742 95.8433C61.5342 94.8542 61.2142 93.6325 61.2142 92.1489C61.2142 91.1308 61.3597 90.1999 61.6797 89.3854C61.9996 88.5709 62.436 87.9601 62.9887 87.5237C63.5705 87.1165 64.1523 86.9128 64.7922 86.9128ZM65.0249 89.0364C64.5595 89.0364 64.1814 89.2982 63.9486 89.8509C63.6868 90.4036 63.5705 91.1308 63.5705 92.0908C63.5705 93.0507 63.6868 93.807 63.9486 94.3597C64.1814 94.9124 64.5304 95.1742 64.9668 95.1742C65.4031 95.1742 65.7231 94.8833 65.9849 94.3306C66.2467 93.7779 66.3631 93.0216 66.3631 92.0617C66.3631 91.1017 66.2467 90.3454 65.9849 89.8218C65.694 89.2982 65.4031 89.0364 65.0249 89.0364Z" fill="#56A9DD"/>
<path d="M70.2901 87.0583H73.2282C74.1008 87.0583 74.8281 87.262 75.439 87.6692C76.0208 88.0765 76.428 88.6874 76.6898 89.4437C76.9516 90.2 77.068 91.0436 77.068 91.9745C77.068 93.5453 76.7189 94.767 76.0208 95.727C75.3226 96.6579 74.3045 97.1233 72.9373 97.1233H70.3192V87.0583H70.2901ZM72.6173 89.0364V95.1743H72.7918C74.0136 95.1743 74.6245 94.0689 74.6245 91.8581C74.6245 91.0145 74.479 90.3164 74.2172 89.7928C73.9554 89.2691 73.5191 89.0073 72.9373 89.0073H72.6173V89.0364Z" fill="#56A9DD"/>
</svg>
