<svg width="62" height="95" viewBox="0 0 62 95" fill="none" xmlns="http://www.w3.org/2000/svg">
<g clip-path="url(#clip0_103_1204)">
<path d="M61.8246 33.0682C61.8246 15.8546 48.1424 1.85107 31.3246 1.85107C14.5068 1.85107 0.824585 15.8546 0.824585 33.0682C0.82458 37.4461 1.72669 41.7748 3.47216 45.7725L3.47945 45.7911L3.48036 45.793C4.03481 47.0569 4.67111 48.2817 5.38502 49.4591L28.6215 94.1912C28.8824 94.6925 29.2717 95.1118 29.7479 95.4042C30.2241 95.6966 30.7691 95.8511 31.3246 95.8511C31.8801 95.8511 32.4251 95.6966 32.9013 95.4042C33.3774 95.1118 33.7668 94.6925 34.0277 94.1912L57.5236 48.9928C57.5937 48.896 57.6702 48.8057 57.7312 48.6987C60.4148 43.9464 61.8266 38.5554 61.8246 33.0682ZM31.3264 86.0455L11.2447 47.3882C11.166 47.1642 11.0628 46.95 10.9369 46.7497C10.8696 46.6446 10.8122 46.5348 10.7466 46.4287L8.99585 43.0585C7.64615 39.9086 6.94899 36.5071 6.94825 33.0682C6.94825 19.3113 17.8836 8.11945 31.3246 8.11945C44.7655 8.11945 55.7 19.3113 55.7 33.0682C55.7 36.8199 54.8688 40.5149 53.2964 43.8673C53.219 43.9781 53.1371 44.086 53.0734 44.2098L31.3264 86.0455Z" fill="#56A9DD"/>
<path d="M31.3241 21.1206C24.4803 21.1206 18.912 26.8194 18.912 33.8249C18.912 40.8304 24.4803 46.5292 31.3241 46.5292C38.1679 46.5292 43.7362 40.8294 43.7362 33.8249C43.7362 26.8203 38.1688 21.1206 31.3241 21.1206Z" fill="#CB3631"/>
</g>
<defs>
<clipPath id="clip0_103_1204">
<rect width="61" height="94" fill="white" transform="translate(0.824585 0.936523)"/>
</clipPath>
</defs>
</svg>
