<svg width="83" height="106" viewBox="0 0 83 106" fill="none" xmlns="http://www.w3.org/2000/svg">
<g clip-path="url(#clip0_103_1228)">
<path d="M57.7246 5.96289V8.72605H24.9246V5.96289H57.7246Z" fill="#56A9DD"/>
<path d="M57.7246 97.1472V99.9104H24.9246V97.1472H57.7246Z" fill="#56A9DD"/>
<path d="M70.3546 24.9087C54.3802 9.4126 28.2799 9.4126 12.3054 24.9087C-3.66903 40.4048 -3.66903 65.5541 12.3054 80.9655C20.3363 88.6712 30.8113 92.5664 41.2864 92.5664C51.7614 92.5664 62.3238 88.6712 70.2673 80.9655C86.3291 65.5541 86.3291 40.3201 70.3546 24.9087ZM64.9425 75.8002C51.8487 88.4172 30.6368 88.4172 17.5429 75.8002C4.44913 63.1831 4.44913 42.6064 17.5429 29.9894C24.0898 23.6385 32.6445 20.5054 41.1991 20.5054C49.7537 20.5054 58.3956 23.6385 64.8552 29.9894C78.0363 42.6911 78.0363 63.1831 64.9425 75.8002Z" fill="#56A9DD"/>
<path d="M46.2618 31.3447L38.4928 31.8528L39.9767 51.8368L24.8752 53.1917L25.399 60.728L47.833 58.7804V58.611H48.2695L46.2618 31.3447Z" fill="#CB3631"/>
</g>
<defs>
<clipPath id="clip0_103_1228">
<rect width="82" height="105" fill="white" transform="translate(0.324585 0.436523)"/>
</clipPath>
</defs>
</svg>
