<svg width="52" height="53" viewBox="0 0 52 53" fill="none" xmlns="http://www.w3.org/2000/svg">
<path d="M41.189 52.3957C40.9595 52.3957 40.7289 52.3371 40.5176 52.2183L26.3244 44.241L12.1312 52.2187C11.8924 52.3531 11.6228 52.4131 11.3535 52.3918C11.0841 52.3705 10.8258 52.2689 10.6082 52.0984C10.3896 51.9271 10.2201 51.6944 10.1187 51.4262C10.0172 51.1581 9.98779 50.8653 10.0337 50.5804L12.7425 33.701L1.26395 21.7516C1.06981 21.5489 0.932469 21.2926 0.867295 21.0115C0.802122 20.7303 0.811693 20.4354 0.894937 20.1598C0.977277 19.8846 1.13039 19.6395 1.3369 19.4524C1.5434 19.2653 1.79503 19.1436 2.06319 19.1011L17.9328 16.6222L25.0283 1.25904C25.272 0.730501 25.7744 0.395996 26.3244 0.395996C26.8745 0.395996 27.3768 0.730501 27.6209 1.25904L34.7164 16.6222L50.586 19.1011C50.8542 19.1436 51.1058 19.2653 51.3123 19.4525C51.5188 19.6396 51.6719 19.8846 51.7543 20.1598C51.8375 20.4354 51.847 20.7303 51.7819 21.0115C51.7167 21.2926 51.5794 21.5488 51.3853 21.7516L39.9067 33.701L42.6155 50.5804C42.6615 50.8653 42.6321 51.1582 42.5306 51.4263C42.4291 51.6944 42.2596 51.9271 42.041 52.0984C41.794 52.2916 41.4955 52.3957 41.189 52.3957ZM26.3244 40.9363C26.5584 40.9363 26.7889 40.9972 26.9958 41.1137L39.2663 48.0106L36.9247 33.4205C36.8847 33.1719 36.9019 32.9168 36.9748 32.677C37.0477 32.4371 37.1742 32.2196 37.3433 32.0432L47.2605 21.7194L33.5485 19.5773C33.3163 19.5408 33.0959 19.4446 32.9064 19.2971C32.7169 19.1496 32.5639 18.9551 32.4608 18.7305L26.3244 5.44423L20.1881 18.7302C20.0848 18.9547 19.9319 19.1491 19.7424 19.2966C19.5529 19.4441 19.3325 19.5403 19.1003 19.5769L5.38837 21.719L15.3056 32.0428C15.4747 32.2192 15.6012 32.4367 15.6741 32.6765C15.747 32.9164 15.7642 33.1716 15.7242 33.4201L13.3822 48.0106L25.6527 41.1137C25.8598 40.9974 26.0903 40.9365 26.3244 40.9363Z" fill="#56A9DD"/>
</svg>
