<svg width="74" height="77" viewBox="0 0 74 77" fill="none" xmlns="http://www.w3.org/2000/svg">
<g clip-path="url(#clip0_103_1252)">
<path d="M37.3246 0.936523C17.209 0.936523 0.824585 17.5205 0.824585 37.881C0.824585 58.2415 17.209 74.8254 37.3246 74.8254C57.4401 74.8254 73.8246 58.2415 73.8246 37.881C73.8246 17.5205 57.4807 0.936523 37.3246 0.936523ZM37.3246 72.4445C18.5068 72.4445 3.21736 56.9689 3.21736 37.922C3.21736 18.8751 18.5068 3.39949 37.3246 3.39949C56.1424 3.39949 71.4318 18.8751 71.4318 37.922C71.4318 56.9689 56.1829 72.4445 37.3246 72.4445Z" fill="#CB3631"/>
<path d="M54.1958 22.6108C54.1958 21.0099 52.9385 19.6963 51.3163 19.6963C49.6941 19.6963 48.4369 20.9689 48.4369 22.6108C48.4369 24.2528 49.6941 25.5253 51.3163 25.5253C51.6813 25.5253 52.0058 25.4432 52.3302 25.3611C52.5735 26.1 52.533 27.0852 52.0058 28.2756C47.5852 37.717 36.0674 38.0864 30.5113 37.676C30.1463 36.2392 28.9296 35.1309 27.4696 35.0077C23.4952 19.7784 27.4291 15.4682 31.9308 13.2516C33.188 12.6358 34.2019 12.5127 34.9724 12.5948C35.0535 14.1136 36.2702 15.3861 37.8519 15.3861C39.4335 15.3861 40.7313 14.1136 40.7313 12.4716C40.7313 10.8297 39.4741 9.55713 37.8519 9.55713C37.0813 9.55713 36.4324 9.84448 35.9052 10.3371C34.6885 10.0908 32.9446 10.0908 30.8763 11.117C23.4952 14.7294 21.7108 22.4056 25.1985 35.7466C24.3469 36.4034 23.8196 37.3886 23.8196 38.579C23.8196 39.0716 23.9008 39.5232 24.1035 39.8926L24.0224 39.8105C23.8196 40.0979 19.6424 47.0352 22.5219 53.3979C24.428 57.667 28.9702 60.5405 35.9863 61.8951C36.2702 63.6192 37.7302 64.9738 39.5146 64.9738C41.4613 64.9738 43.0835 63.3729 43.0835 61.3614C43.0835 59.3911 41.5019 57.7491 39.5146 57.7491C38.2169 57.7491 37.0408 58.488 36.473 59.5142C30.2274 58.2827 26.2935 55.9019 24.7119 52.3716C22.8058 48.1025 24.9552 43.1766 25.7663 41.5756C26.253 41.8219 26.7802 41.9451 27.3074 41.9451C28.6052 41.9451 29.7813 41.1652 30.3491 40.0979C31.3224 40.18 32.458 40.2621 33.6746 40.2621C40.2852 40.2621 49.978 38.579 54.2363 29.2608C55.2502 27.0031 55.0474 24.9096 54.1552 23.5139C54.1552 23.2266 54.1958 22.8982 54.1958 22.6108ZM39.3524 59.6784C40.2446 59.6784 40.9341 60.4173 40.9341 61.2794C40.9341 62.1414 40.2041 62.8803 39.3524 62.8803C38.5008 62.8803 37.7708 62.1414 37.7708 61.2794C37.7708 60.4173 38.4602 59.6784 39.3524 59.6784Z" fill="#56A9DD"/>
</g>
<defs>
<clipPath id="clip0_103_1252">
<rect width="73" height="76" fill="white" transform="translate(0.824585 0.936523)"/>
</clipPath>
</defs>
</svg>
