<svg width="41" height="41" viewBox="0 0 41 41" fill="none" xmlns="http://www.w3.org/2000/svg">
<path d="M20.3246 0.936523C9.2965 0.936523 0.324585 9.90844 0.324585 20.9365C0.324585 31.9646 9.2965 40.9365 20.3246 40.9365C31.3527 40.9365 40.3246 31.9646 40.3246 20.9365C40.3246 9.90844 31.3527 0.936523 20.3246 0.936523ZM21.4593 38.6267V32.2557C21.4593 31.9547 21.3398 31.6661 21.127 31.4533C20.9142 31.2405 20.6255 31.1209 20.3246 31.1209C20.0236 31.1209 19.735 31.2405 19.5222 31.4533C19.3094 31.6661 19.1898 31.9547 19.1898 32.2557V38.6267C10.3161 38.063 3.19806 30.945 2.63437 22.0713H9.00544C9.30639 22.0713 9.59502 21.9517 9.80783 21.7389C10.0206 21.5261 10.1402 21.2375 10.1402 20.9365C10.1402 20.6356 10.0206 20.3469 9.80783 20.1341C9.59502 19.9213 9.30639 19.8018 9.00544 19.8018H2.63437C3.19806 10.928 10.3161 3.81 19.1898 3.24631V9.61737C19.1898 9.91833 19.3094 10.207 19.5222 10.4198C19.735 10.6326 20.0236 10.7521 20.3246 10.7521C20.6255 10.7521 20.9142 10.6326 21.127 10.4198C21.3398 10.207 21.4593 9.91833 21.4593 9.61737V3.24631C30.3331 3.81 37.4511 10.928 38.0148 19.8018H31.6437C31.3428 19.8018 31.0542 19.9213 30.8413 20.1341C30.6285 20.3469 30.509 20.6356 30.509 20.9365C30.509 21.2375 30.6285 21.5261 30.8413 21.7389C31.0542 21.9517 31.3428 22.0713 31.6437 22.0713H38.0148C37.4511 30.945 30.3331 38.063 21.4593 38.6267Z" fill="#56A9DD"/>
</svg>
